<?xml version="1.0" encoding="utf-8"?>
<!-- Generator: Adobe Illustrator 22.0.1, SVG Export Plug-In . SVG Version: 6.00 Build 0)  -->
<svg version="1.1" id="Capa_1" xmlns="http://www.w3.org/2000/svg" xmlns:xlink="http://www.w3.org/1999/xlink" x="0px" y="0px"
	 viewBox="0 0 438.5 438.5" style="enable-background:new 0 0 438.5 438.5;" xml:space="preserve">
<style type="text/css">
	.st0{fill:#DDDDDD;}
</style>
<g>
	<path class="st0" d="M409.1,111.9c-19.6-34.4-46.2-61.7-79.8-81.8C295.7,10,259.1,0,219.3,0c-39.8,0-76.5,10-110.1,30.1
		C75.6,50.2,49,77.5,29.4,111.9C9.8,146.4,0,184,0,224.8c0,49,13.9,93,41.8,132.1c27.9,39.1,63.9,66.2,108.1,81.2
		c5.1,1,8.9,0.3,11.4-2c2.5-2.3,3.7-5.3,3.7-8.8c0-0.6,0-5.9-0.1-15.8c-0.1-10-0.1-18.6-0.1-26l-6.6,1.2c-4.2,0.8-9.5,1.1-15.8,1
		c-6.4-0.1-13-0.8-19.8-2c-6.9-1.3-13.2-4.2-19.1-8.8c-5.9-4.6-10.1-10.6-12.6-18l-2.9-6.7c-1.9-4.5-4.9-9.5-9-14.9
		c-4.1-5.5-8.2-9.2-12.4-11.1l-2-1.5c-1.3-1-2.6-2.2-3.7-3.5c-1.1-1.4-2-2.7-2.6-4.1c-0.6-1.4-0.1-2.5,1.4-3.4s4.3-1.3,8.3-1.3
		l5.7,0.9c3.8,0.8,8.5,3.1,14.1,7c5.6,3.9,10.2,9,13.8,15.2c4.4,8,9.7,14.1,15.8,18.3c6.2,4.2,12.4,6.3,18.7,6.3s11.7-0.5,16.3-1.5
		c4.6-1,8.8-2.4,12.8-4.4c1.7-13.1,6.4-23.1,14-30.1c-10.8-1.2-20.6-2.9-29.3-5.3c-8.7-2.3-17.6-6.1-26.8-11.4
		c-9.2-5.3-16.9-11.8-23-19.6c-6.1-7.8-11.1-18.1-15-30.7c-3.9-12.7-5.9-27.3-5.9-43.9c0-23.6,7.5-43.7,22.6-60.3
		c-7-17.8-6.4-37.7,2-59.7c5.5-1.8,13.7-0.4,24.6,3.9c10.9,4.4,18.8,8.2,23.8,11.3c5,3.1,9.1,5.8,12.1,7.9c17.7-5.1,36-7.6,54.8-7.6
		s37.1,2.5,54.8,7.6l10.8-7c7.4-4.7,16.2-9,26.3-12.9c10.1-3.9,17.8-5,23.1-3.2c8.6,22,9.3,41.9,2.3,59.7
		c15,16.6,22.6,36.7,22.6,60.3c0,16.6-2,31.3-5.9,44c-3.9,12.8-8.9,23-15.1,30.7c-6.2,7.7-13.9,14.2-23.1,19.5
		c-9.2,5.3-18.2,9.1-26.8,11.4c-8.7,2.3-18.4,4.1-29.3,5.3c9.9,8.8,14.8,22.6,14.8,41.6v61.7c0,3.5,1.2,6.4,3.6,8.8
		c2.4,2.3,6.1,3,11.3,2c44.2-15,80.2-42.1,108.1-81.2c27.9-39.1,41.8-83.2,41.8-132.1C438.5,184,428.7,146.4,409.1,111.9z"/>
</g>
</svg>
